<svg xmlns="http://www.w3.org/2000/svg" className="backgroundSVG--up" width="600" height="320" style=""><rect id="backgroundrect" width="100%" height="100%" x="0" y="0" fill="none" stroke="none"/>
        
      <g class="currentLayer" style=""><title>Layer 1</title><path fill="#252422" fillOpacity="1" d="M0,224L24,240C48,256,96,288,144,282.7C192,277,240,235,288,186.7C336,139,384,85,432,85.3C480,85,528,139,576,154.7C624,171,672,149,720,160C768,171,816,213,864,208C912,203,960,149,1008,112C1056,75,1104,53,1152,85.3C1200,117,1248,203,1296,240C1344,277,1392,267,1416,261.3L1440,256L1440,0L1416,0C1392,0,1344,0,1296,0C1248,0,1200,0,1152,0C1104,0,1056,0,1008,0C960,0,912,0,864,0C816,0,768,0,720,0C672,0,624,0,576,0C528,0,480,0,432,0C384,0,336,0,288,0C240,0,192,0,144,0C96,0,48,0,24,0L0,0Z" id="svg_1" class="selected" fill-opacity="1"/></g></svg>