<svg xmlns="http://www.w3.org/2000/svg" className="backgroundSVG--down" width="600" height="320"><rect id="backgroundrect" width="100%" height="100%" x="0" y="0" fill="none" stroke="none"/>
      
    <g class="currentLayer" style=""><title>Layer 1</title><path fill="#252422" fillOpacity="1" d="M0,256L24,245.3C48,235,96,213,144,197.3C192,181,240,171,288,160C336,149,384,139,432,138.7C480,139,528,149,576,144C624,139,672,117,720,101.3C768,85,816,75,864,69.3C912,64,960,64,1008,96C1056,128,1104,192,1152,234.7C1200,277,1248,299,1296,293.3C1344,288,1392,256,1416,240L1440,224L1440,320L1416,320C1392,320,1344,320,1296,320C1248,320,1200,320,1152,320C1104,320,1056,320,1008,320C960,320,912,320,864,320C816,320,768,320,720,320C672,320,624,320,576,320C528,320,480,320,432,320C384,320,336,320,288,320C240,320,192,320,144,320C96,320,48,320,24,320L0,320Z" id="svg_1" class="selected" fill-opacity="1"/></g></svg>